<svg width="65" height="64" viewBox="0 0 65 64" fill="none" xmlns="http://www.w3.org/2000/svg">
<rect x="0.547455" width="64" height="64" rx="32" fill="#F8991D" fill-opacity="0.1"/>
<path d="M46.0163 21.9884V37.8417C46.0163 39.1351 44.9629 40.3217 43.6696 40.4817L43.2563 40.5351C41.0696 40.8284 37.9896 41.7351 35.5096 42.7751C34.6429 43.1351 33.6829 42.4817 33.6829 41.5351V22.9884C33.6829 22.4951 33.9629 22.0417 34.4029 21.8017C36.8429 20.4817 40.5363 19.3084 43.0429 19.0951H43.1229C44.7229 19.0951 46.0163 20.3884 46.0163 21.9884Z" fill="#F8991D"/>
<path d="M30.9629 21.8017C28.5229 20.4817 24.8296 19.3084 22.3229 19.0951H22.2296C20.6296 19.0951 19.3362 20.3884 19.3362 21.9884V37.8417C19.3362 39.1351 20.3896 40.3217 21.6829 40.4817L22.0962 40.5351C24.2829 40.8284 27.3629 41.7351 29.8429 42.7751C30.7096 43.1351 31.6696 42.4817 31.6696 41.5351V22.9884C31.6696 22.4817 31.4029 22.0417 30.9629 21.8017ZM23.3496 25.8417H26.3496C26.8962 25.8417 27.3496 26.2951 27.3496 26.8417C27.3496 27.4017 26.8962 27.8417 26.3496 27.8417H23.3496C22.8029 27.8417 22.3496 27.4017 22.3496 26.8417C22.3496 26.2951 22.8029 25.8417 23.3496 25.8417ZM27.3496 31.8417H23.3496C22.8029 31.8417 22.3496 31.4017 22.3496 30.8417C22.3496 30.2951 22.8029 29.8417 23.3496 29.8417H27.3496C27.8962 29.8417 28.3496 30.2951 28.3496 30.8417C28.3496 31.4017 27.8962 31.8417 27.3496 31.8417Z" fill="#F8991D"/>
</svg>
