<svg width="65" height="64" viewBox="0 0 65 64" fill="none" xmlns="http://www.w3.org/2000/svg">
<rect x="0.279312" width="64" height="64" rx="32" fill="#222057" fill-opacity="0.1"/>
<path d="M45.6126 26.0667C45.6126 26.9467 44.8926 27.6667 44.0126 27.6667H20.546C19.666 27.6667 18.946 26.9467 18.946 26.0667V26.0533C18.946 23 21.4127 20.5333 24.466 20.5333H40.0793C43.1327 20.5333 45.6126 23.0133 45.6126 26.0667Z" fill="#222057"/>
<path d="M18.946 31.2667V37.9467C18.946 41 21.4127 43.4667 24.466 43.4667H40.0793C43.1327 43.4667 45.6126 40.9867 45.6126 37.9333V31.2667C45.6126 30.3867 44.8926 29.6667 44.0126 29.6667H20.546C19.666 29.6667 18.946 30.3867 18.946 31.2667ZM26.946 39H24.2793C23.7327 39 23.2793 38.5467 23.2793 38C23.2793 37.4533 23.7327 37 24.2793 37H26.946C27.4927 37 27.946 37.4533 27.946 38C27.946 38.5467 27.4927 39 26.946 39ZM35.6126 39H30.2793C29.7326 39 29.2793 38.5467 29.2793 38C29.2793 37.4533 29.7326 37 30.2793 37H35.6126C36.1593 37 36.6126 37.4533 36.6126 38C36.6126 38.5467 36.1593 39 35.6126 39Z" fill="#222057"/>
</svg>
