<svg width="40" height="40" viewBox="0 0 40 40" fill="none" xmlns="http://www.w3.org/2000/svg">
<circle cx="20" cy="20" r="18" fill="#222057" stroke="#F5F6FA" stroke-width="4"/>
<path d="M20.36 16.2V26H18.75V19.014L15.768 23.942H15.572L12.59 19V26H10.98V16.2H12.716L15.67 21.1L18.638 16.2H20.36ZM25.926 16.2C26.85 16.2 27.62 16.508 28.236 17.124C28.8613 17.74 29.174 18.5053 29.174 19.42C29.174 20.3253 28.8613 21.0907 28.236 21.716C27.62 22.332 26.85 22.64 25.926 22.64H23.924V26H22.314V16.2H25.926ZM25.926 21.128C26.402 21.128 26.794 20.9693 27.102 20.652C27.41 20.3253 27.564 19.9147 27.564 19.42C27.564 18.9253 27.41 18.5193 27.102 18.202C26.794 17.8753 26.402 17.712 25.926 17.712H23.924V21.128H25.926Z" fill="white"/>
</svg>
