<svg width="24" height="26" viewBox="0 0 24 26" fill="none" xmlns="http://www.w3.org/2000/svg">
<path d="M19.34 16.49L18.34 14.83C18.13 14.46 17.94 13.76 17.94 13.35V10.82C17.94 8.47 16.56 6.44 14.57 5.49C14.05 4.57 13.09 4 11.99 4C10.9 4 9.92 4.59 9.4 5.52C7.45 6.49 6.1 8.5 6.1 10.82V13.35C6.1 13.76 5.91 14.46 5.7 14.82L4.69 16.49C4.29 17.16 4.2 17.9 4.45 18.58C4.69 19.25 5.26 19.77 6 20.02C7.94 20.68 9.98 21 12.02 21C14.06 21 16.1 20.68 18.04 20.03C18.74 19.8 19.28 19.27 19.54 18.58C19.8 17.89 19.73 17.13 19.34 16.49Z" fill="#323232"/>
<path d="M14.83 22.01C14.41 23.17 13.3 24 12 24C11.21 24 10.43 23.68 9.87999 23.11C9.55999 22.81 9.31999 22.41 9.17999 22C9.30999 22.02 9.43999 22.03 9.57999 22.05C9.80999 22.08 10.05 22.11 10.29 22.13C10.86 22.18 11.44 22.21 12.02 22.21C12.59 22.21 13.16 22.18 13.72 22.13C13.93 22.11 14.14 22.1 14.34 22.07C14.5 22.05 14.66 22.03 14.83 22.01Z" fill="#323232"/>
<circle cx="17" cy="7" r="6" fill="#F82A1D" stroke="white" stroke-width="1.5"/>
<path d="M17.575 6.38333C17.9972 6.48333 18.3389 6.68056 18.6 6.975C18.8667 7.26389 19 7.62778 19 8.06667C19 8.65 18.8028 9.10833 18.4083 9.44167C18.0139 9.775 17.5306 9.94167 16.9583 9.94167C16.5139 9.94167 16.1139 9.83889 15.7583 9.63333C15.4083 9.42778 15.1556 9.12778 15 8.73333L15.8167 8.25833C15.9889 8.75833 16.3694 9.00833 16.9583 9.00833C17.2917 9.00833 17.5556 8.925 17.75 8.75833C17.9444 8.58611 18.0417 8.35556 18.0417 8.06667C18.0417 7.77778 17.9444 7.55 17.75 7.38333C17.5556 7.21667 17.2917 7.13333 16.9583 7.13333H16.7417L16.3583 6.55833L17.6167 4.9H15.175V4H18.7583V4.81667L17.575 6.38333Z" fill="white"/>
</svg>
